<svg width="24" height="24" viewBox="0 0 24 24" fill="none" xmlns="http://www.w3.org/2000/svg">
<path d="M3 9C3 6.79086 4.79086 5 7 5H17C19.2091 5 21 6.79086 21 9V18.2C21 19.8569 19.6569 21.2 18 21.2H14.7L13.021 22.5432C12.6809 22.8153 12.2039 22.836 11.8416 22.5944L9.75 21.2H6C4.34315 21.2 3 19.8569 3 18.2V9Z" stroke="currentColor" stroke-width="1.5"/>
<path d="M12.177 11.8226C12.275 11.9206 12.275 12.0786 12.177 12.1766C12.079 12.2746 11.921 12.2746 11.823 12.1766C11.725 12.0786 11.725 11.9206 11.823 11.8226C11.921 11.7256 12.079 11.7256 12.177 11.8226" stroke="currentColor" stroke-width="1.5" stroke-linecap="round" stroke-linejoin="round"/>
<path d="M16.177 11.8226C16.275 11.9206 16.275 12.0786 16.177 12.1766C16.079 12.2746 15.921 12.2746 15.823 12.1766C15.725 12.0786 15.725 11.9206 15.823 11.8226C15.921 11.7256 16.079 11.7256 16.177 11.8226" stroke="currentColor" stroke-width="1.5" stroke-linecap="round" stroke-linejoin="round"/>
<path d="M8.177 11.8226C8.275 11.9206 8.275 12.0786 8.177 12.1766C8.079 12.2746 7.921 12.2746 7.823 12.1766C7.725 12.0786 7.725 11.9206 7.823 11.8226C7.921 11.7256 8.079 11.7256 8.177 11.8226" stroke="currentColor" stroke-width="1.5" stroke-linecap="round" stroke-linejoin="round"/>
<path fill-rule="evenodd" clip-rule="evenodd" d="M21.4137 6.41375C20.6328 7.19475 19.3668 7.19475 18.5857 6.41375C17.8047 5.63275 17.8047 4.36675 18.5857 3.58575C19.3668 2.80475 20.6328 2.80475 21.4137 3.58575C22.1947 4.36675 22.1947 5.63375 21.4137 6.41375Z" fill="white" stroke="currentColor" stroke-width="1.5" stroke-linecap="round" stroke-linejoin="round"/>
</svg>
