<svg width="24" height="24" viewBox="0 0 24 24" fill="none" xmlns="http://www.w3.org/2000/svg">
<path d="M10.457 8.68898L7.982 6.21398C7.396 5.62798 6.446 5.62798 5.861 6.21398V6.21398C5.275 6.79998 5.275 7.74998 5.861 8.33498L8.336 10.81" stroke="currentColor" stroke-width="1.5" stroke-linecap="round" stroke-linejoin="round"/>
<path d="M8.689 6.92201C8.103 6.33601 8.103 5.38601 8.689 4.80101V4.80101C9.275 4.21501 10.225 4.21501 10.81 4.80101L12.578 6.56901" stroke="currentColor" stroke-width="1.5" stroke-linecap="round" stroke-linejoin="round"/>
<path d="M6.214 12.932L5.3 13.846C4.98 14.166 4.8 14.6 4.8 15.053V15.053C4.8 15.506 4.98 15.94 5.3 16.26L7.628 18.588C9.971 20.931 13.77 20.931 16.113 18.588L18.234 16.467C20.577 14.124 20.577 10.325 18.234 7.982L15.406 5.154L16.113 5.861L14.345 4.093C13.759 3.507 12.809 3.507 12.224 4.093V4.093C11.638 4.679 11.638 5.629 12.224 6.214L13.285 7.275" stroke="currentColor" stroke-width="1.5" stroke-linecap="round" stroke-linejoin="round"/>
<path d="M7.629 14.346L4.447 11.164C3.861 10.578 3.861 9.62802 4.447 9.04302V9.04302C5.033 8.45702 5.983 8.45702 6.568 9.04302" stroke="currentColor" stroke-width="1.5" stroke-linecap="round" stroke-linejoin="round"/>
</svg>
