<svg xmlns="http://www.w3.org/2000/svg" width="24" height="24" viewBox="0 0 24 24" fill="none">
<path d="M3 8C3 5.79086 4.79086 4 7 4H17C19.2091 4 21 5.79086 21 8V17.2C21 18.8569 19.6569 20.2 18 20.2H14.7L13.021 21.5432C12.6809 21.8153 12.2039 21.836 11.8416 21.5944L9.75 20.2H6C4.34315 20.2 3 18.8569 3 17.2V8Z" stroke="currentColor" stroke-width="1.5"/>
<path d="M8.177 11.3226C8.275 11.4206 8.275 11.5786 8.177 11.6766C8.079 11.7746 7.921 11.7746 7.823 11.6766C7.725 11.5786 7.725 11.4206 7.823 11.3226C7.921 11.2256 8.079 11.2256 8.177 11.3226" stroke="currentColor" stroke-width="1.5" stroke-linecap="round" stroke-linejoin="round"/>
<path d="M12.177 11.3226C12.275 11.4206 12.275 11.5786 12.177 11.6766C12.079 11.7746 11.921 11.7746 11.823 11.6766C11.725 11.5786 11.725 11.4206 11.823 11.3226C11.921 11.2256 12.079 11.2256 12.177 11.3226" stroke="currentColor" stroke-width="1.5" stroke-linecap="round" stroke-linejoin="round"/>
<path d="M16.177 11.3226C16.275 11.4206 16.275 11.5786 16.177 11.6766C16.079 11.7746 15.921 11.7746 15.823 11.6766C15.725 11.5786 15.725 11.4206 15.823 11.3226C15.921 11.2256 16.079 11.2256 16.177 11.3226" stroke="currentColor" stroke-width="1.5" stroke-linecap="round" stroke-linejoin="round"/>
</svg>