<svg width="24" height="24" viewBox="0 0 24 24" fill="none" xmlns="http://www.w3.org/2000/svg">
<path d="M4.00004 6.45735C4.00004 6.03824 4.26139 5.6636 4.65471 5.51887L11.1547 3.12709C11.3776 3.04507 11.6225 3.04507 11.8454 3.12709L18.3454 5.51887C18.7387 5.6636 19 6.03824 19 6.45735V15.2536C19 15.5442 18.9378 15.831 18.793 16.083C18.4118 16.7459 17.4914 18.1387 15.9237 19.3144C13.7808 20.9216 11.5 21.2143 11.5 21.2143C11.5 21.2143 8.95941 20.3859 7.35227 19.3144C6.19054 18.54 4.95674 16.9938 4.36208 16.1963C4.12097 15.873 4.00004 15.479 4.00004 15.0756V6.45735Z" stroke="currentColor" stroke-width="1.5"/>
<path d="M11.5 20.8043V3.53571L4.53571 6.21428V15.3214L7.21429 18.5357L11.5 20.8043Z" fill="currentColor"/>
</svg>
