<svg width="24" height="24" viewBox="0 0 24 24" fill="none" xmlns="http://www.w3.org/2000/svg">
<path d="M5.994 9C5.994 8.55213 6.04311 8.11572 6.13625 7.69587C6.73228 5.00905 9.13128 3 12 3C15.317 3 18.006 5.686 18.006 9V11M18.0447 13.5C18.1686 14.296 18.5855 15.0247 19.223 15.537L19.532 15.785C20.449 16.521 19.928 18 18.752 18H5.248C4.072 18 3.551 16.521 4.468 15.785L4.777 15.537C5.547 14.919 5.994 13.986 5.994 13L5.99998 11" stroke="currentColor" stroke-width="1.5" stroke-linecap="round" stroke-linejoin="round"/>
<path d="M10.5 21H13.5" stroke="currentColor" stroke-width="1.5" stroke-linecap="round" stroke-linejoin="round"/>
<path d="M20.9909 13.906L3 10.084" stroke="currentColor" stroke-width="1.5" stroke-linecap="round" stroke-linejoin="round"/>
</svg>
