<svg width="24" height="24" viewBox="0 0 24 24" fill="none" xmlns="http://www.w3.org/2000/svg">
<path fill-rule="evenodd" clip-rule="evenodd" d="M10.7562 13.2442C9.48373 11.9718 8.52448 10.5472 7.88715 9.10185C7.75228 8.79626 7.83168 8.43846 8.06769 8.20247L8.95843 7.31287C9.6882 6.58314 9.6882 5.55107 9.05087 4.91378L7.77404 3.63702C6.92462 2.78766 5.54773 2.78766 4.69832 3.63702L3.98921 4.34609C3.1833 5.15195 2.84723 6.31452 3.06475 7.4673C3.60202 10.309 5.25299 13.4204 7.91651 16.0838C10.58 18.7471 13.6916 20.398 16.5335 20.9353C17.6864 21.1528 18.849 20.8167 19.6549 20.0109L20.3629 19.3029C21.2124 18.4535 21.2124 17.0767 20.3629 16.2273L19.0872 14.9517C18.4499 14.3144 17.4166 14.3144 16.7804 14.9517L15.7983 15.9348C15.5623 16.1708 15.2045 16.2502 14.8989 16.1153C13.4535 15.4769 12.0287 14.5167 10.7562 13.2442Z" stroke="currentColor" stroke-width="1.5" stroke-linecap="round" stroke-linejoin="round"/>
</svg>
