<svg width="24" height="24" viewBox="0 0 24 24" fill="none" xmlns="http://www.w3.org/2000/svg">
<path fill-rule="evenodd" clip-rule="evenodd" d="M7.47299 3.16745L12.214 3.16745C12.6555 3.16745 13.0737 3.36539 13.3536 3.70681C13.6335 4.04823 13.7456 4.49716 13.659 4.93008L13.0813 7.81887C13.0094 8.17833 13.074 8.55169 13.2627 8.86604L15.426 12.4717C15.5626 12.6993 15.5662 12.9828 15.4354 13.2138C15.3046 13.4448 15.0597 13.5876 14.7942 13.5876L4.89279 13.5876C4.62734 13.5876 4.38241 13.4448 4.25162 13.2138C4.12083 12.9828 4.12441 12.6993 4.26099 12.4717L6.42435 8.86604C6.61296 8.55169 6.67763 8.17833 6.60574 7.81887L6.02798 4.93008C5.9414 4.49716 6.05347 4.04824 6.33337 3.70681C6.61327 3.36539 7.0315 3.16745 7.47299 3.16745Z" stroke="currentColor" stroke-width="1.5" stroke-linecap="round" stroke-linejoin="round"/>
<path d="M9.84342 19.5001V14.3404" stroke="currentColor" stroke-width="1.5" stroke-linecap="round" stroke-linejoin="round"/>
<path d="M17 9L21 9" stroke="currentColor" stroke-width="1.5" stroke-linecap="round"/>
<path d="M19 13L21 13" stroke="currentColor" stroke-width="1.5" stroke-linecap="round"/>
<path d="M14 17L21 17" stroke="currentColor" stroke-width="1.5" stroke-linecap="round"/>
</svg>
