<svg width="24" height="24" viewBox="0 0 24 24" fill="none" xmlns="http://www.w3.org/2000/svg">
<path fill-rule="evenodd" clip-rule="evenodd" d="M16.4156 4.52367L20.4829 8.59105C20.8617 8.96981 21.0507 9.49843 20.9979 10.0315C20.9451 10.5645 20.6561 11.0458 20.2104 11.3429L17.2365 13.3256C16.8664 13.5723 16.6016 13.9481 16.4937 14.3796L15.2564 19.3288C15.1783 19.6413 14.9381 19.8876 14.6277 19.9735C14.3174 20.0595 13.9847 19.9719 13.757 19.7442L5.26246 11.2496C5.03473 11.0219 4.9471 10.6893 5.03307 10.3789C5.11904 10.0685 5.36532 9.82836 5.67777 9.75025L10.6271 8.51291C11.0585 8.40504 11.4343 8.14021 11.681 7.77015L13.6637 4.79617C13.9608 4.35048 14.4421 4.06149 14.9751 4.00871C15.5082 3.95593 16.0368 4.14492 16.4156 4.52367Z" stroke="currentColor" stroke-width="1.5" stroke-linecap="round" stroke-linejoin="round"/>
<path d="M5 20.0058L9.50971 15.4961" stroke="currentColor" stroke-width="1.5" stroke-linecap="round" stroke-linejoin="round"/>
</svg>
