<svg width="24" height="24" viewBox="0 0 24 24" fill="none" xmlns="http://www.w3.org/2000/svg">
<ellipse cx="16.4069" cy="5.26262" rx="2.16013" ry="2.08226" stroke="currentColor" stroke-width="1.5" stroke-linecap="round" stroke-linejoin="round"/>
<ellipse cx="4.30352" cy="12.0006" rx="2.16013" ry="2.08226" stroke="currentColor" stroke-width="1.5" stroke-linecap="round" stroke-linejoin="round"/>
<ellipse cx="16.413" cy="18.7342" rx="2.16013" ry="2.08226" stroke="currentColor" stroke-width="1.5" stroke-linecap="round" stroke-linejoin="round"/>
<path d="M14.4149 4.48093C13.0832 4.1438 11.6888 4.14006 10.3553 4.47007" stroke="currentColor" stroke-width="1.5" stroke-linecap="round" stroke-linejoin="round"/>
<path d="M18.1051 6.53467C19.0671 7.46647 19.77 8.63257 20.1448 9.91834" stroke="currentColor" stroke-width="1.5" stroke-linecap="round" stroke-linejoin="round"/>
<path d="M4.5972 14.0543C4.96457 15.3419 5.66074 16.5118 6.61727 17.4488" stroke="currentColor" stroke-width="1.5" stroke-linecap="round" stroke-linejoin="round"/>
<path d="M4.5972 9.9469C4.96455 8.65924 5.66073 7.48936 6.61727 6.55231" stroke="currentColor" stroke-width="1.5" stroke-linecap="round" stroke-linejoin="round"/>
<path d="M18.1113 17.4622C19.0732 16.5303 19.7761 15.3643 20.1508 14.0786" stroke="currentColor" stroke-width="1.5" stroke-linecap="round" stroke-linejoin="round"/>
<path d="M14.4211 19.5159C13.0893 19.8531 11.6949 19.8568 10.3613 19.5268" stroke="currentColor" stroke-width="1.5" stroke-linecap="round" stroke-linejoin="round"/>
</svg>
