<svg width="24" height="24" viewBox="0 0 24 24" fill="none" xmlns="http://www.w3.org/2000/svg">
<path d="M17.99 10.9996L17.9901 19.5462C18 20.4446 17.4024 21.2365 16.5358 21.4734C13.5449 22.1811 10.4301 22.1811 7.43922 21.4734C6.57258 21.2365 5.97498 20.4446 5.98489 19.5462L5.98498 10.9996" stroke="currentColor" stroke-width="1.5" stroke-linecap="round" stroke-linejoin="round"/>
<path d="M18.0064 13.0004L21.2328 12.2404C21.499 12.1777 21.7279 12.0087 21.8663 11.7729C22.0047 11.537 22.0405 11.2547 21.9654 10.9918L20.7519 6.74443C20.4346 5.63407 19.6532 4.7149 18.6083 4.22312L16.8112 3.37723C16.2781 3.12632 15.6962 2.99622 15.107 2.99622H8.89302C8.30384 2.99622 7.72192 3.12632 7.18884 3.37723L5.39168 4.22312C4.34685 4.7149 3.5654 5.63407 3.24816 6.74443L2.03465 10.9918C1.95952 11.2547 1.99531 11.537 2.13369 11.7728C2.27207 12.0087 2.50097 12.1777 2.76716 12.2404L5.99361 13.0004" stroke="currentColor" stroke-width="1.5" stroke-linecap="round" stroke-linejoin="round"/>
<path d="M15.5015 3.01611V3.01611C15.5015 3.80682 15.1873 4.56515 14.6282 5.12426C14.0691 5.68338 13.3108 5.99748 12.5201 5.99748H11.4799C10.6892 5.99748 9.93087 5.68338 9.37176 5.12426C8.81264 4.56515 8.49854 3.80682 8.49854 3.01611V3.01611" stroke="currentColor" stroke-width="1.5" stroke-linecap="round" stroke-linejoin="round"/>
</svg>
