<svg width="24" height="24" viewBox="0 0 24 24" fill="none" xmlns="http://www.w3.org/2000/svg">
<path d="M16.0846 13C15.9006 13.0009 15.7522 13.1502 15.7522 13.3342C15.7522 13.5182 15.9015 13.6676 16.0855 13.6667C16.2695 13.6667 16.4188 13.5174 16.4188 13.3334C16.4188 13.1494 16.2695 13 16.0846 13" stroke="currentColor" stroke-width="2" stroke-linecap="round" stroke-linejoin="round"/>
<path d="M4 5.77779V17.7778C4 18.76 4.79556 19.5556 5.77778 19.5556H18.2222C19.2044 19.5556 20 18.76 20 17.7778V8.8889C20 7.90668 19.2044 7.11112 18.2222 7.11112H5.33333C4.59733 7.11112 4 6.51379 4 5.77779V5.77779C4 5.04179 4.59733 4.44446 5.33333 4.44446H16.4444" stroke="currentColor" stroke-width="1.5" stroke-linecap="round" stroke-linejoin="round"/>
</svg>
